<?xml version="1.0" encoding="utf-8"?>
<!-- Generator: Adobe Illustrator 16.0.0, SVG Export Plug-In . SVG Version: 6.00 Build 0)  -->
<!DOCTYPE svg PUBLIC "-//W3C//DTD SVG 1.1//EN" "http://www.w3.org/Graphics/SVG/1.1/DTD/svg11.dtd">
<svg version="1.1" id="Layer_1" xmlns="http://www.w3.org/2000/svg" xmlns:xlink="http://www.w3.org/1999/xlink" x="0px" y="0px"
	 width="100px" height="100px" viewBox="0 0 100 100" enable-background="new 0 0 100 100" xml:space="preserve">
<g>
	<path fill-rule="evenodd" clip-rule="evenodd" fill="#FFFFFF" d="M91,48.946c0,22.057-18.022,39.941-40.253,39.941
		c-7.06,0-13.693-1.802-19.459-4.969L9,91l7.265-21.43c-3.666-6.02-5.774-13.079-5.774-20.625C10.491,26.884,28.512,9,50.747,9
		C72.978,9,91,26.884,91,48.946L91,48.946z M50.747,15.362c-18.666,0-33.846,15.063-33.846,33.584c0,7.345,2.393,14.152,6.446,19.69
		l-4.226,12.47l13.004-4.133c5.342,3.506,11.744,5.553,18.622,5.553c18.658,0,33.842-15.063,33.842-33.58
		C84.589,30.425,69.405,15.362,50.747,15.362L50.747,15.362z M71.074,58.146c-0.249-0.409-0.908-0.653-1.891-1.144
		c-0.988-0.489-5.842-2.86-6.745-3.185c-0.902-0.325-1.565-0.489-2.22,0.489c-0.658,0.979-2.549,3.186-3.127,3.839
		c-0.574,0.654-1.148,0.734-2.136,0.245s-4.169-1.526-7.937-4.858c-2.932-2.598-4.912-5.801-5.491-6.78
		c-0.573-0.979-0.057-1.508,0.432-1.997c0.445-0.441,0.989-1.143,1.482-1.713c0.494-0.574,0.658-0.984,0.987-1.638
		s0.165-1.223-0.084-1.712c-0.245-0.489-2.22-5.308-3.043-7.27c-0.818-1.957-1.641-1.632-2.22-1.632
		c-0.574,0-1.232-0.081-1.891-0.081c-0.658,0-1.727,0.245-2.63,1.225c-0.903,0.978-3.452,3.349-3.452,8.164
		c0,4.817,3.533,9.475,4.026,10.125c0.494,0.653,6.824,10.863,16.856,14.783c10.032,3.919,10.032,2.611,11.843,2.446
		c1.806-0.16,5.837-2.366,6.659-4.653C71.318,60.513,71.318,58.551,71.074,58.146L71.074,58.146z M71.074,58.146"/>
</g>
</svg>
